<?xml version="1.0" standalone="no"?>
<!DOCTYPE svg PUBLIC "-//W3C//DTD SVG 20010904//EN"
 "http://www.w3.org/TR/2001/REC-SVG-20010904/DTD/svg10.dtd">
<svg version="1.0" xmlns="http://www.w3.org/2000/svg"
 width="184.000000pt" height="210.000000pt" viewBox="0 0 184.000000 210.000000"
 preserveAspectRatio="xMidYMid meet">

<g transform="translate(0.000000,210.000000) scale(0.100000,-0.100000)"
fill="#000000" stroke="none">
<path d="M196 2090 c-37 -12 -66 -38 -82 -77 -20 -46 -19 -502 0 -593 14 -63
316 -780 357 -846 33 -55 123 -129 185 -154 50 -20 80 -24 194 -27 l135 -3 0
-97 0 -98 -218 -5 -219 -5 -24 -28 c-34 -40 -32 -90 5 -128 l29 -29 527 0 527
0 29 29 c45 46 40 102 -14 153 -1 1 -101 4 -222 8 l-220 5 -3 97 -3 97 223 3
c272 4 271 3 371 132 l67 88 0 149 0 149 -619 0 -618 0 -27 61 c-14 33 -26 65
-26 70 0 5 178 9 450 9 495 0 494 0 525 60 22 43 19 112 -6 144 -41 52 -30 51
-577 56 l-513 5 -32 70 -32 70 -5 287 c-5 286 -5 286 -29 312 -14 14 -41 30
-60 36 -41 11 -36 11 -75 0z"/>
</g>
</svg>
